<svg width="180" height="126" viewBox="0 0 180 126" fill="none" xmlns="http://www.w3.org/2000/svg">
<path d="M162 40.5C171.844 40.5 180 32.625 180 22.5C180 12.6562 171.844 4.5 162 4.5C153.562 4.5 146.531 10.4062 144.562 18H112.5V9C112.5 4.21875 108.281 0 103.5 0H76.5C71.4375 0 67.5 4.21875 67.5 9V18H35.1562C33.1875 10.4062 26.1562 4.5 18 4.5C7.875 4.5 0 12.6562 0 22.5C0 32.625 7.875 40.5 18 40.5C26.1562 40.5 33.1875 34.875 35.1562 27H66.9375C44.1562 36 28.9688 56.8125 27.2812 81H18C12.9375 81 9 85.2188 9 90V117C9 122.062 12.9375 126 18 126H45C49.7812 126 54 122.062 54 117V90C54 85.2188 49.7812 81 45 81H36.2812C37.9688 61.5938 49.7812 44.7188 67.5 36.5625C67.7812 41.3438 71.4375 45 76.5 45H103.5C108.281 45 111.938 41.3438 112.219 36.5625C129.938 44.7188 141.75 61.5938 143.438 81H135C129.938 81 126 85.2188 126 90V117C126 122.062 129.938 126 135 126H162C166.781 126 171 122.062 171 117V90C171 85.2188 166.781 81 162 81H152.438C150.75 56.8125 135.562 36 112.781 27H144.562C146.531 34.875 153.562 40.5 162 40.5ZM45 117H18V90H45V117ZM18 31.5C12.9375 31.5 9 27.5625 9 22.5C9 17.7188 12.9375 13.5 18 13.5C22.7812 13.5 27 17.7188 27 22.5C27 27.5625 22.7812 31.5 18 31.5ZM103.5 36H76.5V9H103.5V36ZM162 117H135V90H162V117ZM162 13.5C166.781 13.5 171 17.7188 171 22.5C171 27.5625 166.781 31.5 162 31.5C156.938 31.5 153 27.5625 153 22.5C153 17.7188 156.938 13.5 162 13.5Z" fill="#4287D6"/>
</svg>
