<?xml version="1.0" encoding="UTF-8"?>
<svg width="518px" height="183px" viewBox="0 0 518 183" version="1.1" xmlns="http://www.w3.org/2000/svg" xmlns:xlink="http://www.w3.org/1999/xlink">
    <!-- Generator: Sketch 46.2 (44496) - http://www.bohemiancoding.com/sketch -->
    <title>Group</title>
    <desc>Created with Sketch.</desc>
    <defs></defs>
    <g id="Page-1" stroke="none" stroke-width="1" fill="none" fill-rule="evenodd">
        <g id="Group" transform="translate(1.000000, 0.000000)">
            <g id="CB-Full-Logo_red/black">
                <g id="Logo-Type" transform="translate(150.220000, 27.826087)" fill="#FFFFFF">
                    <path d="M28.3503392,60.3260731 C10.1229526,60.3260731 0.96967759,46.994554 0.96967759,32.3278753 C0.96967759,17.6812742 10.4396065,4.49029825 28.528457,4.49029825 C35.4701029,4.49029825 40.3930805,6.0262338 44.5640053,8.79694108 L39.3787987,17.4152461 C36.4497507,15.5128946 33.1941534,14.2781229 28.3503392,14.2781229 C18.5983905,14.2781229 13.3538113,22.1686153 13.3538113,32.0016145 C13.3538113,42.1357775 18.3559524,50.4529187 28.528457,50.4529187 C34.2727555,50.4529187 37.7213137,48.410024 40.4771917,46.3470518 L45.2616333,54.6441154 C42.5502848,57.128717 36.1083583,60.3260731 28.3503392,60.3260731" id="Fill-1"></path>
                    <path d="M67.2101972,60.3260731 C53.6089253,60.3260731 47.6073455,49.9459596 47.6073455,39.7515638 C47.6073455,29.5521486 53.5297619,18.9110265 67.1310338,18.9110265 C80.7520966,18.9110265 86.951585,29.2108296 86.951585,39.4102448 C86.951585,49.4440199 80.8906326,60.3260731 67.2101972,60.3260731 M66.9924977,27.1629156 C61.1442971,27.1629156 59.2542695,32.1421576 59.2542695,39.4102448 C59.2542695,46.6933902 61.5450622,51.9085439 67.388315,51.9085439 C73.2909405,51.9085439 75.3096087,47.0347092 75.3096087,39.7515638 C75.3096087,32.4684184 72.8951232,27.1629156 66.9924977,27.1629156" id="Fill-3"></path>
                    <path d="M104.178543,19.8822799 L104.178543,45.2151777 C104.178543,49.1001912 105.514427,51.0426979 109.245005,51.0426979 C113.173491,51.0426979 116.186651,47.253053 116.978285,46.2843093 L116.978285,19.8822799 L127.972111,19.8822799 L127.972111,47.7600121 C127.972111,52.9249719 128.531203,56.945509 129.025974,59.3598391 L118.200371,59.3598391 C117.87877,58.3057657 117.478005,55.7157567 117.398841,54.114569 C115.305957,56.8250435 111.298307,60.3285828 104.876171,60.3285828 C96.3017791,60.3285828 93.1896656,54.7470131 93.1896656,47.4990034 L93.1896656,19.8822799 L104.178543,19.8822799 Z" id="Fill-5"></path>
                    <path d="M154.888182,60.3260731 C142.345721,60.3260731 134.567911,52.0139513 134.567911,39.6662341 C134.567911,26.3999672 143.30063,18.9110265 155.209783,18.9110265 C161.513174,18.9110265 165.278386,20.8133781 167.113989,22.0280722 L163.625849,29.6374784 C161.8892,28.5231722 159.415342,27.3486333 155.570967,27.3486333 C149.460537,27.3486333 146.214835,32.1421576 146.214835,39.3249151 C146.214835,46.5478277 149.307158,51.7278456 155.808457,51.7278456 C160.251506,51.7278456 162.90843,50.0865027 164.100829,49.3837871 L167.43559,56.8074756 C165.59504,57.9970728 162.007945,60.3260731 154.888182,60.3260731" id="Fill-7"></path>
                    <path d="M196.807708,59.3573294 L196.807708,34.0244316 C196.807708,30.1394181 195.466876,28.2019308 191.805566,28.2019308 C187.812759,28.2019308 184.7996,31.9213041 184.003018,32.9703582 L184.003018,59.3573294 L173.01414,59.3573294 L173.01414,1.09216632 L184.003018,1.09216632 L184.003018,24.5980036 C186.016738,22.4095464 189.747316,18.9110265 196.11008,18.9110265 C204.684472,18.9110265 207.796585,24.452441 207.796585,31.755664 L207.796585,59.3573294 L196.807708,59.3573294 Z" id="Fill-9"></path>
                    <path d="M227.734397,1.09066051 L227.734397,22.9752324 C229.490837,21.1782882 232.899813,18.9095207 237.229065,18.9095207 C246.896902,18.9095207 253.739594,25.6254742 253.739594,39.3234092 C253.739594,52.9008787 244.744646,60.3245673 232.959186,60.3245673 C224.082983,60.3245673 218.660286,58.0808967 216.74552,57.1723858 L216.74552,1.09066051 L227.734397,1.09066051 Z M227.734397,50.7776737 C228.451816,51.0186048 230.08951,51.6259519 232.959186,51.6259519 C238.644112,51.6259519 242.09267,47.419697 242.09267,39.3234092 C242.09267,32.0252057 239.658393,27.6934658 234.116951,27.6934658 C230.846511,27.6934658 228.392444,29.7965933 227.734397,30.6298132 L227.734397,50.7776737 Z" id="Fill-11"></path>
                    <path d="M281.028723,59.3573294 C280.712069,58.3835663 280.44984,56.3808269 280.370676,55.1661327 C278.634028,57.2893377 274.987561,60.3260731 269.500544,60.3260731 C262.860709,60.3260731 257.715084,56.2804389 257.715084,49.1779918 C257.715084,38.9233633 268.105288,35.1387378 278.45591,35.1387378 L279.791794,35.1387378 L279.791794,32.9703582 C279.791794,29.6977112 278.475701,27.6899523 273.587358,27.6899523 C268.60006,27.6899523 265.151501,30.3251358 263.716664,31.3741898 L258.971804,24.6180812 C261.321969,22.4697791 266.507176,18.9110265 274.868816,18.9110265 C285.654837,18.9110265 290.721299,23.0771262 290.721299,33.6178604 L290.721299,47.4814356 C290.721299,52.9224622 291.280391,56.8074756 291.839483,59.3573294 L281.028723,59.3573294 Z M279.791794,41.9600986 L278.45591,41.9600986 C272.414749,41.9600986 268.243824,43.7771204 268.243824,48.2494033 C268.243824,51.0602658 270.460401,52.2749599 272.869939,52.2749599 C276.560935,52.2749599 278.693401,50.1316773 279.791794,48.9571383 L279.791794,41.9600986 Z" id="Fill-13"></path>
                    <path d="M310.481983,60.3260731 C303.441382,60.3260731 298.953804,58.2229456 296.564057,56.6016803 L300.230315,48.8366728 C301.769054,49.8857268 305.534266,52.0691646 309.823936,52.0691646 C313.831587,52.0691646 316.082797,50.9197227 316.082797,48.6710327 C316.082797,46.0860431 311.669435,45.3983857 306.152731,42.7079888 C300.799302,40.0928828 297.622868,37.0360699 297.622868,31.0931036 C297.622868,23.6242405 303.461173,18.9110265 312.312638,18.9110265 C318.977211,18.9110265 323.068973,20.9739988 324.860046,22.0481498 L321.050305,29.6374784 C319.516512,28.6837929 316.463772,27.1629156 312.752984,27.1629156 C309.047145,27.1629156 307.488614,28.483017 307.488614,30.5008147 C307.488614,33.0958431 311.075709,33.7232677 315.528653,35.5402895 C321.673717,38.0550076 326.037602,40.9662579 326.037602,47.6019011 C326.037602,55.9541781 320.154768,60.3260731 310.481983,60.3260731" id="Fill-15"></path>
                    <path d="M351.495087,52.0711724 C356.759457,52.0711724 359.653871,50.3545385 361.588428,49.3807755 L365.096359,56.5233777 C362.503755,57.9990805 358.535687,60.3280808 350.475857,60.3280808 C337.394096,60.3280808 329.95273,52.0510948 329.95273,39.4273108 C329.95273,26.8838371 338.512279,18.9080149 349.34283,18.9080149 C361.608219,18.9080149 367.530635,27.5514169 366.234333,42.3034254 L341.703556,42.3034254 C342.223067,48.1911783 345.211487,52.0711724 351.495087,52.0711724 L351.495087,52.0711724 Z M355.680855,34.8144847 C355.606639,30.4425897 353.889781,26.9039147 349.179556,26.9039147 C344.830513,26.9039147 342.361603,29.7147771 341.644184,34.8144847 L355.680855,34.8144847 Z" id="Fill-17"></path>
                </g>
                <path d="M98.6881412,69.4950512 C98.6881412,73.0280947 96.6285156,76.2112831 92.6413545,76.9060657 C85.7188601,78.1231672 71.1889601,78.8672252 59.0073267,78.8672252 C46.8256934,78.8672252 32.2957934,78.1231672 25.3684067,76.9060657 C21.3861378,76.2112831 19.3265123,73.0280947 19.3265123,69.4950512 L19.3265123,46.4046165 C19.3216201,42.8666454 22.0368034,39.5651962 25.3684067,38.9886744 C27.4280323,38.6289643 32.1832723,38.2889643 35.9160378,38.2988194 C37.3249978,38.3037469 38.4599934,39.4124425 38.4648856,41.1025875 C38.4648856,41.107515 38.4599934,57.2451962 38.4599934,57.2451962 C45.6173145,57.2205585 51.8304367,56.8165005 59.0073267,56.8165005 C66.1793245,56.8165005 72.3973389,57.2205585 79.5497678,57.2451962 L79.5497678,41.1025875 C79.5546601,39.4124425 80.6896556,38.3037469 82.0937234,38.2988194 C85.8264889,38.2889643 90.5866212,38.6289643 92.6413545,38.9886744 C95.9778501,39.5651962 98.6881412,42.8666454 98.6881412,46.4046165 L98.6881412,69.4950512 Z M59.0073267,0.0020077589 C26.5865701,0.0020077589 0.300660058,26.4776599 0.300660058,59.1324425 C0.300660058,91.7872252 26.5865701,118.262877 59.0073267,118.262877 C91.4280834,118.262877 117.713993,91.7872252 117.713993,59.1324425 C117.713993,26.4776599 91.4280834,0.0020077589 59.0073267,0.0020077589 L59.0073267,0.0020077589 Z" id="Logo-Icon" fill="#EA2328"></path>
            </g>
            <path d="M12.916,181.44 C19.032,181.44 23.432,178.008 23.432,172.728 L23.432,172.64 C23.432,167.932 20.264,165.424 13.4,163.928 C6.624,162.476 5.04,160.848 5.04,157.944 L5.04,157.856 C5.04,155.084 7.592,152.884 11.596,152.884 C14.764,152.884 17.624,153.896 20.484,156.228 L22.508,153.544 C19.384,151.036 16.172,149.76 11.684,149.76 C5.832,149.76 1.564,153.324 1.564,158.164 L1.564,158.252 C1.564,163.312 4.82,165.6 11.904,167.14 C18.372,168.504 19.912,170.132 19.912,172.992 L19.912,173.08 C19.912,176.116 17.184,178.316 13.048,178.316 C8.78,178.316 5.7,176.864 2.488,173.96 L0.332,176.512 C4.028,179.812 8.032,181.44 12.916,181.44 Z M38.74,181 L42.216,181 L42.216,153.412 L52.6,153.412 L52.6,150.2 L28.356,150.2 L28.356,153.412 L38.74,153.412 L38.74,181 Z M53.212,181 L67.248,149.98 L70.504,149.98 L84.54,181 L80.8,181 L77.192,172.86 L60.428,172.86 L56.776,181 L53.212,181 Z M61.792,169.736 L75.828,169.736 L68.832,154.028 L61.792,169.736 Z M91.312,181 L91.312,150.2 L104.556,150.2 C108.34,150.2 111.376,151.344 113.312,153.28 C114.808,154.776 115.688,156.932 115.688,159.352 L115.688,159.44 C115.688,164.544 112.168,167.536 107.328,168.416 L116.788,181 L112.52,181 L103.588,169.032 L94.788,169.032 L94.788,181 L91.312,181 Z M94.788,165.908 L104.248,165.908 C108.868,165.908 112.168,163.532 112.168,159.572 L112.168,159.484 C112.168,155.7 109.264,153.412 104.292,153.412 L94.788,153.412 L94.788,165.908 Z M131.656,181 L135.132,181 L135.132,153.412 L145.516,153.412 L145.516,150.2 L121.272,150.2 L121.272,153.412 L131.656,153.412 L131.656,181 Z M163.812,181 L177.848,149.98 L181.104,149.98 L195.14,181 L191.4,181 L187.792,172.86 L171.028,172.86 L167.376,181 L163.812,181 Z M172.392,169.736 L186.428,169.736 L179.432,154.028 L172.392,169.736 Z M215.812,181 L215.812,150.2 L229.056,150.2 C232.84,150.2 235.876,151.344 237.812,153.28 C239.308,154.776 240.188,156.932 240.188,159.352 L240.188,159.44 C240.188,164.544 236.668,167.536 231.828,168.416 L241.288,181 L237.02,181 L228.088,169.032 L219.288,169.032 L219.288,181 L215.812,181 Z M219.288,165.908 L228.748,165.908 C233.368,165.908 236.668,163.532 236.668,159.572 L236.668,159.484 C236.668,155.7 233.764,153.412 228.792,153.412 L219.288,153.412 L219.288,165.908 Z M248.324,181 L270.808,181 L270.808,177.832 L251.8,177.832 L251.8,167.052 L268.608,167.052 L268.608,163.884 L251.8,163.884 L251.8,153.368 L270.588,153.368 L270.588,150.2 L248.324,150.2 L248.324,181 Z M289.108,181.22 L292.188,181.22 L305.432,150.2 L301.692,150.2 L290.692,176.732 L279.736,150.2 L275.864,150.2 L289.108,181.22 Z M324.7,181.528 C315.328,181.528 309.036,174.18 309.036,165.688 L309.036,165.6 C309.036,157.108 315.416,149.672 324.788,149.672 C334.16,149.672 340.452,157.02 340.452,165.512 L340.452,165.6 C340.452,174.092 334.072,181.528 324.7,181.528 Z M324.788,178.316 C331.828,178.316 336.844,172.684 336.844,165.688 L336.844,165.6 C336.844,158.604 331.74,152.884 324.7,152.884 C317.66,152.884 312.644,158.516 312.644,165.512 L312.644,165.6 C312.644,172.596 317.748,178.316 324.788,178.316 Z M348.5,181 L369.312,181 L369.312,177.788 L351.976,177.788 L351.976,150.2 L348.5,150.2 L348.5,181 Z M387.876,181.484 C395.576,181.484 400.724,176.82 400.724,167.844 L400.724,150.2 L397.248,150.2 L397.248,168.108 C397.248,174.84 393.64,178.272 387.964,178.272 C382.068,178.272 378.548,174.532 378.548,167.888 L378.548,150.2 L375.072,150.2 L375.072,168.108 C375.072,176.82 380.264,181.484 387.876,181.484 Z M417.66,181 L421.136,181 L421.136,153.412 L431.52,153.412 L431.52,150.2 L407.276,150.2 L407.276,153.412 L417.66,153.412 L417.66,181 Z M438.864,181 L442.34,181 L442.34,150.2 L438.864,150.2 L438.864,181 Z M466.36,181.528 C456.988,181.528 450.696,174.18 450.696,165.688 L450.696,165.6 C450.696,157.108 457.076,149.672 466.448,149.672 C475.82,149.672 482.112,157.02 482.112,165.512 L482.112,165.6 C482.112,174.092 475.732,181.528 466.36,181.528 Z M466.448,178.316 C473.488,178.316 478.504,172.684 478.504,165.688 L478.504,165.6 C478.504,158.604 473.4,152.884 466.36,152.884 C459.32,152.884 454.304,158.516 454.304,165.512 L454.304,165.6 C454.304,172.596 459.408,178.316 466.448,178.316 Z M490.16,181 L493.548,181 L493.548,155.744 L513.436,181 L516.208,181 L516.208,150.2 L512.82,150.2 L512.82,174.884 L493.416,150.2 L490.16,150.2 L490.16,181 Z" id="START-A-REVOLUTION" stroke="#FFFFFF" fill="#FFFFFF"></path>
        </g>
    </g>
</svg>