<svg width="20" height="20" viewBox="0 0 20 20" fill="none" xmlns="http://www.w3.org/2000/svg">
<path d="M14.1324 11.7549L13.9715 11.7945C14.3583 13.3955 14.7 14.6464 14.9485 15.5895C15.1969 16.5269 15.3438 17.1651 15.3438 17.487C15.3486 17.5576 15.336 17.6284 15.3071 17.6931L15.2478 17.7128C15.0573 17.6842 14.8748 17.617 14.7113 17.5152C13.915 17.1001 12.4552 16.061 10.0974 14.6153L10.0127 14.5616L9.928 14.6181C8.33827 15.5923 7.15516 16.3829 6.30524 16.925C5.96961 17.1465 5.62482 17.3538 5.27178 17.5463C5.10765 17.6499 4.92416 17.7191 4.73246 17.7496L4.67034 17.727C4.6439 17.6646 4.6323 17.5969 4.63645 17.5293C4.63645 17.2046 4.78611 16.5636 5.04024 15.6205C5.29154 14.6746 5.64168 13.4096 6.02852 11.7945L6.05676 11.6956L5.97769 11.6307C4.4755 10.3516 3.31216 9.44517 2.53 8.79572C2.22241 8.55114 1.92831 8.29004 1.64902 8.01357C1.45419 7.81591 1.38359 7.66344 1.39489 7.62955L1.42313 7.5872C1.58898 7.49812 1.77183 7.44519 1.95962 7.4319C2.8406 7.29636 4.65057 7.28224 7.45447 7.06482L7.5533 7.05353L7.59283 6.96034C8.38063 5.07414 8.90018 3.65666 9.28138 2.71638C9.47056 2.24765 9.62869 1.89752 9.7614 1.67727C9.80738 1.59379 9.86436 1.51687 9.93082 1.44856L10.0099 1.40338L10.0889 1.44856C10.2584 1.59821 10.5266 2.16859 10.8824 3.09193C11.2495 4.01526 11.7267 5.3085 12.4072 6.96034L12.4467 7.05353L12.5484 7.062C14.6774 7.23142 16.2304 7.27942 17.2441 7.35001C17.7467 7.38672 18.1194 7.4319 18.3453 7.49402C18.4583 7.52225 18.5317 7.55896 18.5628 7.5872L18.591 7.62955C18.6023 7.66344 18.5317 7.81591 18.3369 8.01357C17.758 8.62348 16.2671 9.71624 14.0251 11.6307L13.9489 11.6956L13.9715 11.7945L14.1324 11.7549L14.2369 11.8792C15.7278 10.6085 16.8827 9.6993 17.6677 9.04703C17.9833 8.79442 18.2849 8.52483 18.5712 8.23946C18.7774 8.01639 18.9101 7.84697 18.9214 7.62955C18.9208 7.57097 18.9065 7.51334 18.8795 7.46133C18.8525 7.40933 18.8136 7.36442 18.7661 7.33024C18.557 7.20269 18.3211 7.12537 18.0771 7.10435C17.1481 6.96881 15.3635 6.95752 12.5738 6.73727L12.5596 6.89822L12.7121 6.8361C11.9328 4.95554 11.4217 3.54089 11.0377 2.59496C10.8983 2.22208 10.7322 1.85971 10.5407 1.51068C10.4783 1.3986 10.4004 1.29593 10.3092 1.20572C10.2291 1.12665 10.1223 1.08033 10.0099 1.07583C9.89742 1.08033 9.79068 1.12665 9.71057 1.20572C9.43386 1.47397 9.20232 2.03588 8.82677 2.97051C8.45969 3.90232 7.97967 5.18708 7.2907 6.83893L7.44317 6.89822L7.42906 6.73727C5.30001 6.90387 3.74982 6.95187 2.72201 7.02529C2.32959 7.04208 1.93938 7.0931 1.55584 7.17777C1.43392 7.20569 1.31875 7.25752 1.217 7.33024C1.17041 7.36517 1.13245 7.41031 1.10601 7.4622C1.07958 7.51408 1.06539 7.57133 1.06452 7.62955C1.07299 7.84697 1.2057 8.01639 1.41465 8.23946C2.04151 8.89455 3.51828 9.96472 5.76309 11.882L5.87039 11.7549L5.71227 11.7182C5.32543 13.3277 4.97812 14.5871 4.72399 15.5358C4.46986 16.4902 4.31173 17.1199 4.30891 17.5293C4.30891 17.6733 4.32867 17.7976 4.39927 17.9077C4.46986 18.0206 4.60822 18.0799 4.73246 18.0771C4.97822 18.0503 5.21473 17.9683 5.42426 17.8371C6.26571 17.3938 7.71989 16.3547 10.0974 14.8948L10.0127 14.7537L9.928 14.8948C11.4951 15.8549 12.6613 16.6342 13.5084 17.1735C13.932 17.4474 14.2764 17.6592 14.5588 17.8032C14.8412 17.95 15.0501 18.0376 15.2478 18.0404C15.3131 18.0423 15.3778 18.0278 15.436 17.9982C15.4942 17.9686 15.5441 17.9249 15.581 17.871C15.6461 17.7539 15.6765 17.6207 15.6685 17.487C15.6685 17.0832 15.5132 16.4507 15.2647 15.5076C15.0162 14.5616 14.6717 13.3136 14.2906 11.7182L14.1324 11.7549L14.2369 11.8792L14.1324 11.7549ZM19.7713 7.23142L19.9266 7.18059C19.7402 6.60174 19.2602 6.29961 18.7463 6.14995C18.2296 5.99748 17.6592 5.97489 17.2074 5.9523L17.1989 6.11607L17.213 5.9523C15.8972 5.85347 14.6153 5.80829 13.3079 5.71229L13.2966 5.87606L13.4463 5.81676C12.9719 4.60259 12.5201 3.38841 12.0175 2.194L11.8679 2.25895L12.0203 2.19683C11.8509 1.78175 11.6533 1.24808 11.3511 0.80476C11.049 0.364269 10.617 -0.00280748 10.0099 1.61825e-05C9.39432 1.61825e-05 8.95383 0.361445 8.6517 0.80476C8.3411 1.24808 8.14344 1.78175 7.97685 2.19683C7.49965 3.39123 7.04786 4.60259 6.5509 5.81111L6.70055 5.87606L6.68926 5.71229C5.38472 5.80829 4.09996 5.85347 2.78413 5.9523L2.79825 6.11607L2.78978 5.9523C2.33799 5.97489 1.76761 5.99748 1.25088 6.14995C0.736976 6.29961 0.256954 6.60174 0.0705918 7.18059C0.0242331 7.32284 0.000414307 7.47147 0 7.62108C0.0141183 8.5896 0.954398 9.28704 1.52478 9.78401L1.53043 9.78965C2.55541 10.6255 3.57758 11.433 4.57716 12.266L4.68163 12.1389L4.52351 12.0994C4.19031 13.3842 3.85712 14.6209 3.52393 15.9057V15.9085C3.41098 16.3518 3.25004 16.925 3.25004 17.4841C3.24721 17.998 3.39404 18.5204 3.87124 18.8677L3.96725 18.7322L3.86842 18.8649C4.11254 19.048 4.41036 19.1453 4.71552 19.1416C5.48638 19.1388 6.24029 18.6192 6.79091 18.2776C7.88931 17.5858 8.98489 16.846 10.1002 16.1598L10.0155 16.0187L9.92517 16.1598C11.0179 16.846 12.0909 17.5604 13.2119 18.2522C13.7654 18.5938 14.5108 19.1049 15.2788 19.1106C15.5833 19.1129 15.8808 19.019 16.1288 18.8423H16.1316C16.6031 18.4922 16.7471 17.9613 16.7443 17.4474C16.7443 16.894 16.589 16.3264 16.4789 15.8859C16.1431 14.6276 15.8184 13.3663 15.5047 12.1022L15.3466 12.1389L15.4511 12.266C16.4478 11.433 17.4502 10.6226 18.4724 9.78965C19.0456 9.28987 19.9859 8.59242 20 7.6239C19.9996 7.47429 19.9758 7.32566 19.9294 7.18341L19.7741 7.23424L19.6188 7.28789C19.6555 7.40366 19.6725 7.51378 19.6725 7.6239C19.6866 8.34959 18.8536 9.04138 18.2606 9.53835L18.3679 9.66259L18.2663 9.53835C17.2441 10.3685 16.2417 11.1789 15.2393 12.0147L15.1631 12.0796L15.1857 12.1785C15.4963 13.4406 15.8295 14.7056 16.1626 15.965L16.3208 15.9255L16.1626 15.965C16.2756 16.4083 16.4168 16.9533 16.4168 17.4474C16.4168 17.9133 16.2982 18.3058 15.9368 18.5769L16.0356 18.7096L15.9424 18.5769C15.7485 18.7138 15.5162 18.7859 15.2788 18.783C14.6576 18.7887 13.9404 18.3284 13.387 17.9755C12.2688 17.2865 11.1986 16.5749 10.1002 15.8803L10.0155 15.8266L9.928 15.8831C8.80418 16.5749 7.7086 17.3119 6.61584 18.0009C6.06523 18.3482 5.3339 18.8225 4.71834 18.8197C4.48285 18.8214 4.25346 18.7449 4.06607 18.6023H4.06325C3.69617 18.3312 3.57758 17.9444 3.57476 17.4841C3.57476 16.99 3.72723 16.4366 3.84018 15.9876C4.17337 14.7056 4.50657 13.4661 4.83976 12.1813L4.86517 12.0796L4.78611 12.0147C3.78371 11.1789 2.75872 10.3685 1.73655 9.53835L1.6349 9.66259L1.7422 9.53835C1.14923 9.04138 0.31625 8.34959 0.330369 7.6239C0.330369 7.51378 0.347311 7.40366 0.386842 7.28507C0.530849 6.84175 0.883806 6.60739 1.34689 6.4662C1.80714 6.33067 2.35493 6.30243 2.80954 6.27984C4.1169 6.18384 5.40167 6.13866 6.71749 6.04265L6.81632 6.03418L6.85585 5.941C7.35846 4.724 7.81025 3.50983 8.28463 2.32107C8.45405 1.90316 8.64605 1.38926 8.92277 0.993946C9.20232 0.598633 9.53551 0.330385 10.0127 0.330385C10.4786 0.330385 10.8062 0.595809 11.0857 0.993946C11.3568 1.38926 11.5516 1.90316 11.7182 2.32107C12.218 3.50983 12.6698 4.72118 13.147 5.93818L13.1837 6.03418L13.2853 6.04265C14.6012 6.13583 15.8831 6.18384 17.1905 6.27984H17.1933C17.6451 6.30243 18.1957 6.33067 18.6559 6.4662C19.119 6.60739 19.472 6.84175 19.616 7.28507L19.7713 7.23142Z" fill="#00D770"/>
</svg>
